<svg class="main-svg" xmlns="http://www.w3.org/2000/svg" xmlns:xlink="http://www.w3.org/1999/xlink" width="700" height="450" style="" viewBox="0 0 700 450"><rect x="0" y="0" width="700" height="450" style="fill: rgb(255, 255, 255); fill-opacity: 1;"/><defs id="defs-6dc4e1"><g class="clips"><clipPath id="clip6dc4e1xyplot" class="plotclip"><rect width="580" height="330"/></clipPath><clipPath class="axesclip" id="clip6dc4e1x"><rect x="60" y="0" width="580" height="450"/></clipPath><clipPath class="axesclip" id="clip6dc4e1y"><rect x="0" y="60" width="700" height="330"/></clipPath><clipPath class="axesclip" id="clip6dc4e1xy"><rect x="60" y="60" width="580" height="330"/></clipPath></g><g class="gradients"/></defs><g class="bglayer"/><g class="layer-below"><g class="imagelayer"/><g class="shapelayer"/></g><g class="cartesianlayer"><g class="subplot xy"><g class="layer-subplot"><g class="shapelayer"/><g class="imagelayer"/></g><g class="gridlayer"><g class="x"><path class="xgrid crisp" transform="translate(124.44,0)" d="M0,60v330" style="stroke: rgb(238, 238, 238); stroke-opacity: 1; stroke-width: 1px;"/><path class="xgrid crisp" transform="translate(253.33,0)" d="M0,60v330" style="stroke: rgb(238, 238, 238); stroke-opacity: 1; stroke-width: 1px;"/><path class="xgrid crisp" transform="translate(382.22,0)" d="M0,60v330" style="stroke: rgb(238, 238, 238); stroke-opacity: 1; stroke-width: 1px;"/><path class="xgrid crisp" transform="translate(511.11,0)" d="M0,60v330" style="stroke: rgb(238, 238, 238); stroke-opacity: 1; stroke-width: 1px;"/></g><g class="y"><path class="ygrid crisp" transform="translate(0,375.05)" d="M60,0h580" style="stroke: rgb(238, 238, 238); stroke-opacity: 1; stroke-width: 1px;"/><path class="ygrid crisp" transform="translate(0,310.19)" d="M60,0h580" style="stroke: rgb(238, 238, 238); stroke-opacity: 1; stroke-width: 1px;"/><path class="ygrid crisp" transform="translate(0,245.32)" d="M60,0h580" style="stroke: rgb(238, 238, 238); stroke-opacity: 1; stroke-width: 1px;"/><path class="ygrid crisp" transform="translate(0,180.45999999999998)" d="M60,0h580" style="stroke: rgb(238, 238, 238); stroke-opacity: 1; stroke-width: 1px;"/><path class="ygrid crisp" transform="translate(0,115.6)" d="M60,0h580" style="stroke: rgb(238, 238, 238); stroke-opacity: 1; stroke-width: 1px;"/></g></g><g class="zerolinelayer"/><path class="xlines-below"/><path class="ylines-below"/><g class="overlines-below"/><g class="xaxislayer-below"/><g class="yaxislayer-below"/><g class="overaxes-below"/><g class="plot" transform="translate(60, 60)" clip-path="url('#clip6dc4e1xyplot')"><g class="scatterlayer mlayer"><g class="trace scatter traceb796cf" style="stroke-miterlimit: 2; opacity: 1;"><g class="fills"/><g class="errorbars"/><g class="lines"><path class="js-line" d="M0,19.68L1.29,16.5L2.58,27.49L3.87,25.71L5.16,21.82L7.73,31.63L9.02,27.96L10.31,22.83L11.6,30.23L12.89,40.49L14.18,29.82L16.76,44.71L18.04,42.16L19.33,40.63L20.62,50.69L21.91,57.54L23.2,51.62L24.49,56.18L25.78,51.75L27.07,52.83L28.36,71.38L30.93,65.62L32.22,68.18L33.51,62.84L34.8,71.63L36.09,68.73L37.38,63L38.67,78.11L39.96,70.54L45.11,90.35L46.4,86.97L47.69,82.75L48.98,89.42L50.27,90.93L51.56,95.99L54.13,94.81L55.42,102.37L56.71,85.43L58,95.79L59.29,93.38L60.58,100.98L63.16,102.18L64.44,100.16L67.02,120.7L68.31,111.79L72.18,128.96L73.47,120.59L74.76,123.2L76.04,129.24L77.33,127.62L78.62,115.17L79.91,127.12L81.2,118.67L83.78,150.7L85.07,133.98L86.36,130.98L87.64,138.23L88.93,124.75L90.22,143.02L91.51,138.75L92.8,143.3L94.09,151.02L95.38,143.91L96.67,144.34L97.96,148.23L99.24,151.45L100.53,146.59L101.82,150.85L103.11,164.97L104.4,152.9L105.69,169.68L106.98,155.04L108.27,158.55L109.56,164.98L110.84,161.19L112.13,166.65L113.42,153.64L114.71,158.86L116,171.4L118.58,157.65L119.87,180L123.73,177.49L125.02,177.86L126.31,180.8L127.6,164.36L128.89,175.55L130.18,168.57L131.47,194.96L132.76,188.97L134.04,176.99L135.33,185.25L136.62,197.16L137.91,194.66L139.2,189.32L140.49,187.46L141.78,192.82L143.07,181.06L144.36,174.47L145.64,187.21L146.93,192.93L148.22,190.34L149.51,188.97L150.8,195.59L152.09,208.39L153.38,197.03L154.67,204.87L155.96,198.43L157.24,191.05L158.53,207.12L161.11,215.24L162.4,200.04L163.69,208.04L164.98,201.76L166.27,215L167.56,208.97L168.84,205.39L170.13,217.33L171.42,205.58L172.71,205.7L174,200.88L175.29,218.3L176.58,201.8L177.87,216.08L180.44,207.47L181.73,209.75L183.02,212.46L184.31,219.88L185.6,217.76L186.89,222.16L188.18,226.63L189.47,236.66L190.76,219.33L192.04,241.63L193.33,244.51L194.62,234.19L195.91,240.03L197.2,237.14L198.49,225.98L199.78,224.02L201.07,210.45L202.36,239.88L203.64,242.5L204.93,227.76L206.22,220.91L207.51,231.5L208.8,233.7L210.09,227.56L211.38,233.8L212.67,235.9L213.96,231.03L215.24,248.07L216.53,247.66L217.82,257.9L220.4,243.25L221.69,241.77L222.98,242.53L224.27,245.9L225.56,236.56L226.84,242.45L228.13,244.34L229.42,243.77L230.71,235.08L232,248.37L233.29,229.66L234.58,249L235.87,237.25L237.16,240.77L238.44,244.93L239.73,252.69L241.02,250.89L242.31,247.05L243.6,254.92L244.89,256.56L246.18,254.53L247.47,250.35L248.76,250.38L250.04,241.29L251.33,236.04L252.62,258.41L253.91,260.24L255.2,249.17L256.49,237.52L257.78,267.17L260.36,239.6L261.64,258.61L264.22,250L265.51,227.18L266.8,245.71L268.09,243.94L269.38,250.12L270.67,245.35L271.96,238.57L273.24,259.65L274.53,264.62L275.82,251.68L277.11,245.62L278.4,249.59L279.69,250.94L280.98,278.75L282.27,252.34L283.56,264.62L284.84,264.62L286.13,243.17L287.42,262.31L288.71,250.08L290,256.6L291.29,247.8L293.87,270.8L295.16,258.84L296.44,281.01L297.73,252.21L299.02,268.34L300.31,270.42L301.6,256.65L302.89,268.98L304.18,252.72L305.47,262.82L306.76,279.26L308.04,266.82L309.33,263.09L310.62,256.78L311.91,244.13L313.2,274.62L314.49,257.71L315.78,279.99L318.36,252.25L319.64,264.31L320.93,263.03L322.22,283.08L324.8,253.9L326.09,269.41L327.38,259.93L328.67,261.22L329.96,258.8L331.24,276.65L332.53,256.58L333.82,257.51L335.11,255.95L336.4,266.76L337.69,256.44L338.98,262.92L340.27,259.8L341.56,264.14L342.84,251.3L344.13,282.21L346.71,246.4L348,266.44L349.29,265.11L350.58,281.49L351.87,263.15L353.16,278.56L354.44,272.5L355.73,258.46L357.02,283.82L358.31,248.54L359.6,284.11L360.89,270.56L362.18,273.96L363.47,265.76L364.76,267.25L366.04,253.85L367.33,266.53L368.62,287.37L369.91,281.44L371.2,260.88L372.49,275.15L373.78,260.5L375.07,276.27L376.36,260.69L377.64,265.44L378.93,263.08L380.22,251.22L381.51,287.91L382.8,295.47L384.09,263.06L385.38,260.9L386.67,277.94L387.96,272.11L389.24,271.23L390.53,237.14L391.82,276.64L394.4,264.72L395.69,269.52L396.98,273.43L398.27,270L399.56,274.74L400.84,264.09L402.13,264.38L403.42,275.96L404.71,279.07L406,267.02L407.29,265.83L408.58,288.55L409.87,278.33L411.16,282.6L413.73,258.13L415.02,261.94L417.6,277.86L418.89,268.68L420.18,263.89L421.47,279.24L422.76,288.54L424.04,269.47L425.33,260.69L426.62,269.98L427.91,276.91L429.2,267.73L430.49,260.45L431.78,265.54L433.07,284.03L434.36,273.07L435.64,283.76L436.93,276.29L438.22,288.03L439.51,263.41L440.8,273.52L442.09,273.28L443.38,313.5L444.67,284.95L447.24,267.52L448.53,283.41L449.82,260.55L451.11,263.58L453.69,279.55L454.98,270.5L456.27,245.33L457.56,252.57L458.84,276.57L460.13,265.04L461.42,261.04L462.71,273.4L464,284.94L465.29,269.69L466.58,278.57L467.87,272.45L470.44,261.89L471.73,288.28L474.31,267.22L475.6,268.03L476.89,294.73L478.18,273.61L479.47,269.77L480.76,278.94L482.04,279.39L483.33,262.22L485.91,277.79L487.2,266.28L488.49,253.08L489.78,277.1L491.07,272.74L492.36,264.15L493.64,264.97L494.93,275.94L497.51,289.94L498.8,277.91L500.09,280.41L501.38,273.33L502.67,267.92L503.96,277.59L505.24,265.89L506.53,289.03L507.82,248.61L509.11,281.75L510.4,261.73L511.69,265.25L512.98,261.72L514.27,264.82L515.56,278.24L516.84,276.15L518.13,270.55L519.42,274.52L520.71,296.24L522,260.14L525.87,286.09L527.16,270.01L528.44,276.48L529.73,268.75L531.02,260.3L532.31,280.66L533.6,270.53L534.89,253.52L536.18,262.77L537.47,282.89L540.04,265.57L541.33,292.02L542.62,253.74L543.91,278.8L545.2,284.91L546.49,279.5L547.78,264.7L549.07,292.64L550.36,285.5L551.64,252.51L552.93,259.5L554.22,273.36L555.51,267.02L556.8,275.71L558.09,265.57L559.38,279.73L560.67,261.32L561.96,292.85L563.24,273.41L564.53,289.66L565.82,295.06L567.11,278.41L568.4,266.29L569.69,274.26L572.27,254.16L573.56,261.36L574.84,280.04L576.13,266.22L577.42,291.57L578.71,284.03L580,260.16" style="vector-effect: non-scaling-stroke; fill: none; stroke: rgb(31, 119, 180); stroke-opacity: 1; stroke-width: 2px; opacity: 1;"/></g><g class="points"/><g class="text"/></g></g></g><g class="overplot"/><path class="xlines-above crisp" d="M0,0" style="fill: none;"/><path class="ylines-above crisp" d="M0,0" style="fill: none;"/><g class="overlines-above"/><g class="xaxislayer-above"><g class="xtick"><text text-anchor="middle" x="0" y="403" transform="translate(124.44,0)" style="font-family: 'Open Sans', verdana, arial, sans-serif; font-size: 12px; fill: rgb(68, 68, 68); fill-opacity: 1; white-space: pre;">100</text></g><g class="xtick"><text text-anchor="middle" x="0" y="403" transform="translate(253.33,0)" style="font-family: 'Open Sans', verdana, arial, sans-serif; font-size: 12px; fill: rgb(68, 68, 68); fill-opacity: 1; white-space: pre;">200</text></g><g class="xtick"><text text-anchor="middle" x="0" y="403" transform="translate(382.22,0)" style="font-family: 'Open Sans', verdana, arial, sans-serif; font-size: 12px; fill: rgb(68, 68, 68); fill-opacity: 1; white-space: pre;">300</text></g><g class="xtick"><text text-anchor="middle" x="0" y="403" transform="translate(511.11,0)" style="font-family: 'Open Sans', verdana, arial, sans-serif; font-size: 12px; fill: rgb(68, 68, 68); fill-opacity: 1; white-space: pre;">400</text></g><g class="xtick"><text text-anchor="middle" x="0" y="403" transform="translate(640,0)" style="font-family: 'Open Sans', verdana, arial, sans-serif; font-size: 12px; fill: rgb(68, 68, 68); fill-opacity: 1; white-space: pre;">500</text></g></g><g class="yaxislayer-above"><g class="ytick"><text text-anchor="end" x="59" y="4.199999999999999" transform="translate(0,375.05)" style="font-family: 'Open Sans', verdana, arial, sans-serif; font-size: 12px; fill: rgb(68, 68, 68); fill-opacity: 1; white-space: pre;">0.56</text></g><g class="ytick"><text text-anchor="end" x="59" y="4.199999999999999" transform="translate(0,310.19)" style="font-family: 'Open Sans', verdana, arial, sans-serif; font-size: 12px; fill: rgb(68, 68, 68); fill-opacity: 1; white-space: pre;">0.58</text></g><g class="ytick"><text text-anchor="end" x="59" y="4.199999999999999" transform="translate(0,245.32)" style="font-family: 'Open Sans', verdana, arial, sans-serif; font-size: 12px; fill: rgb(68, 68, 68); fill-opacity: 1; white-space: pre;">0.6</text></g><g class="ytick"><text text-anchor="end" x="59" y="4.199999999999999" transform="translate(0,180.45999999999998)" style="font-family: 'Open Sans', verdana, arial, sans-serif; font-size: 12px; fill: rgb(68, 68, 68); fill-opacity: 1; white-space: pre;">0.62</text></g><g class="ytick"><text text-anchor="end" x="59" y="4.199999999999999" transform="translate(0,115.6)" style="font-family: 'Open Sans', verdana, arial, sans-serif; font-size: 12px; fill: rgb(68, 68, 68); fill-opacity: 1; white-space: pre;">0.64</text></g></g><g class="overaxes-above"/></g></g><g class="polarlayer"/><g class="ternarylayer"/><g class="geolayer"/><g class="funnelarealayer"/><g class="pielayer"/><g class="treemaplayer"/><g class="sunburstlayer"/><g class="glimages"/><defs id="topdefs-6dc4e1"><g class="clips"/></defs><g class="layer-above"><g class="imagelayer"/><g class="shapelayer"/></g><g class="infolayer"><g class="g-gtitle"/><g class="g-xtitle"/><g class="g-ytitle"/></g></svg>