<svg class="main-svg" xmlns="http://www.w3.org/2000/svg" xmlns:xlink="http://www.w3.org/1999/xlink" width="700" height="450" style="" viewBox="0 0 700 450"><rect x="0" y="0" width="700" height="450" style="fill: rgb(255, 255, 255); fill-opacity: 1;"/><defs id="defs-7f4d43"><g class="clips"><clipPath id="clip7f4d43xyplot" class="plotclip"><rect width="580" height="330"/></clipPath><clipPath class="axesclip" id="clip7f4d43x"><rect x="60" y="0" width="580" height="450"/></clipPath><clipPath class="axesclip" id="clip7f4d43y"><rect x="0" y="60" width="700" height="330"/></clipPath><clipPath class="axesclip" id="clip7f4d43xy"><rect x="60" y="60" width="580" height="330"/></clipPath></g><g class="gradients"/></defs><g class="bglayer"/><g class="layer-below"><g class="imagelayer"/><g class="shapelayer"/></g><g class="cartesianlayer"><g class="subplot xy"><g class="layer-subplot"><g class="shapelayer"/><g class="imagelayer"/></g><g class="gridlayer"><g class="x"><path class="xgrid crisp" transform="translate(175.07,0)" d="M0,60v330" style="stroke: rgb(238, 238, 238); stroke-opacity: 1; stroke-width: 1px;"/><path class="xgrid crisp" transform="translate(291.3,0)" d="M0,60v330" style="stroke: rgb(238, 238, 238); stroke-opacity: 1; stroke-width: 1px;"/><path class="xgrid crisp" transform="translate(407.54,0)" d="M0,60v330" style="stroke: rgb(238, 238, 238); stroke-opacity: 1; stroke-width: 1px;"/><path class="xgrid crisp" transform="translate(523.77,0)" d="M0,60v330" style="stroke: rgb(238, 238, 238); stroke-opacity: 1; stroke-width: 1px;"/></g><g class="y"><path class="ygrid crisp" transform="translate(0,376.52)" d="M60,0h580" style="stroke: rgb(238, 238, 238); stroke-opacity: 1; stroke-width: 1px;"/><path class="ygrid crisp" transform="translate(0,325.21)" d="M60,0h580" style="stroke: rgb(238, 238, 238); stroke-opacity: 1; stroke-width: 1px;"/><path class="ygrid crisp" transform="translate(0,273.9)" d="M60,0h580" style="stroke: rgb(238, 238, 238); stroke-opacity: 1; stroke-width: 1px;"/><path class="ygrid crisp" transform="translate(0,222.59)" d="M60,0h580" style="stroke: rgb(238, 238, 238); stroke-opacity: 1; stroke-width: 1px;"/><path class="ygrid crisp" transform="translate(0,171.26999999999998)" d="M60,0h580" style="stroke: rgb(238, 238, 238); stroke-opacity: 1; stroke-width: 1px;"/><path class="ygrid crisp" transform="translate(0,119.96000000000001)" d="M60,0h580" style="stroke: rgb(238, 238, 238); stroke-opacity: 1; stroke-width: 1px;"/><path class="ygrid crisp" transform="translate(0,68.65)" d="M60,0h580" style="stroke: rgb(238, 238, 238); stroke-opacity: 1; stroke-width: 1px;"/></g></g><g class="zerolinelayer"/><path class="xlines-below"/><path class="ylines-below"/><g class="overlines-below"/><g class="xaxislayer-below"/><g class="yaxislayer-below"/><g class="overaxes-below"/><g class="plot" transform="translate(60, 60)" clip-path="url('#clip7f4d43xyplot')"><g class="scatterlayer mlayer"><g class="trace scatter tracefec8cd" style="stroke-miterlimit: 2; opacity: 1;"><g class="fills"/><g class="errorbars"/><g class="lines"><path class="js-line" d="M0,313.5L2.32,277.28L3.49,303.84L4.65,301.43L5.81,303.84L6.97,289.35L8.14,294.18L9.3,284.52L10.46,216.91L11.62,214.5L12.79,216.91L13.95,212.09L15.11,221.74L16.27,202.43L17.43,219.33L19.76,224.16L20.92,103.43L22.08,98.6L23.25,81.7L24.41,86.52L25.57,74.45L27.9,74.45L29.06,52.72L30.22,74.45L31.38,59.96L33.71,79.28L34.87,59.96L36.03,64.79L37.19,74.45L38.36,69.62L39.52,52.72L40.68,62.38L41.84,64.79L43.01,57.55L44.17,38.23L47.66,59.96L48.82,45.48L51.14,38.23L52.3,38.23L53.47,55.13L54.63,43.06L55.79,40.65L56.95,43.06L58.12,55.13L59.28,43.06L60.44,33.4L61.6,55.13L62.77,40.65L63.93,38.23L66.25,62.38L67.41,45.48L68.58,30.99L69.74,59.96L72.06,35.82L73.23,50.3L74.39,45.48L75.55,45.48L76.71,30.99L77.88,40.65L79.04,43.06L80.2,52.72L81.36,64.79L82.53,28.57L84.85,45.48L86.01,33.4L87.17,57.55L88.34,50.3L90.66,55.13L91.82,40.65L92.99,50.3L94.15,50.3L95.31,38.23L96.47,43.06L97.64,57.55L98.8,55.13L101.12,47.89L102.28,50.3L103.45,43.06L104.61,50.3L105.77,50.3L106.93,40.65L108.1,59.96L109.26,59.96L110.42,69.62L111.58,47.89L112.75,69.62L113.91,59.96L115.07,62.38L116.23,55.13L117.39,45.48L118.56,43.06L119.72,47.89L120.88,38.23L122.04,40.65L123.21,52.72L124.37,43.06L125.53,45.48L127.86,59.96L129.02,50.3L130.18,59.96L131.34,38.23L132.51,21.33L133.67,40.65L135.99,47.89L137.15,64.79L138.32,45.48L139.48,55.13L140.64,45.48L141.8,26.16L144.13,55.13L145.29,43.06L146.45,52.72L147.62,55.13L148.78,52.72L149.94,35.82L151.1,50.3L152.26,26.16L153.43,43.06L154.59,43.06L155.75,35.82L156.91,47.89L158.08,33.4L159.24,47.89L160.4,62.38L161.56,40.65L163.89,52.72L165.05,40.65L166.21,28.57L167.37,47.89L168.54,40.65L169.7,47.89L170.86,35.82L172.02,57.55L173.19,47.89L174.35,52.72L175.51,35.82L176.67,35.82L177.84,57.55L179,40.65L181.32,30.99L182.48,43.06L183.65,47.89L184.81,35.82L185.97,50.3L187.13,52.72L188.3,57.55L189.46,43.06L190.62,55.13L191.78,50.3L192.95,52.72L194.11,28.57L195.27,43.06L196.43,38.23L197.6,47.89L198.76,47.89L199.92,50.3L201.08,40.65L202.24,55.13L203.41,50.3L204.57,35.82L205.73,40.65L206.89,33.4L208.06,45.48L209.22,35.82L210.38,35.82L211.54,52.72L212.71,45.48L213.87,50.3L215.03,43.06L216.19,50.3L217.35,35.82L218.52,52.72L219.68,45.48L220.84,47.89L222,43.06L223.17,40.65L224.33,40.65L225.49,35.82L226.65,38.23L227.82,21.33L228.98,45.48L230.14,33.4L231.3,33.4L233.63,33.4L234.79,30.99L235.95,47.89L237.11,50.3L238.28,52.72L239.44,40.65L240.6,35.82L241.76,38.23L244.09,55.13L245.25,43.06L246.41,55.13L247.58,45.48L248.74,40.65L249.9,50.3L251.06,43.06L252.22,43.06L253.39,26.16L254.55,40.65L255.71,45.48L256.87,45.48L258.04,43.06L259.2,45.48L260.36,50.3L261.52,47.89L262.69,50.3L263.85,43.06L265.01,50.3L266.17,35.82L267.33,57.55L268.5,47.89L270.82,55.13L271.98,50.3L273.15,40.65L274.31,55.13L275.47,43.06L276.63,40.65L277.8,33.4L278.96,35.82L280.12,47.89L281.28,40.65L282.44,55.13L283.61,57.55L284.77,30.99L285.93,43.06L287.09,45.48L288.26,57.55L289.42,40.65L290.58,45.48L291.74,57.55L292.91,40.65L294.07,47.89L295.23,45.48L296.39,67.21L297.56,43.06L298.72,52.72L299.88,52.72L301.04,55.13L302.2,47.89L303.37,38.23L304.53,40.65L305.69,52.72L306.85,55.13L308.02,57.55L309.18,45.48L310.34,28.57L311.5,50.3L312.67,47.89L313.83,43.06L314.99,67.21L316.15,35.82L317.31,50.3L318.48,33.4L319.64,57.55L320.8,43.06L321.96,40.65L323.13,50.3L324.29,35.82L325.45,59.96L326.61,35.82L327.78,40.65L328.94,45.48L330.1,55.13L331.26,55.13L332.42,40.65L333.59,30.99L334.75,35.82L337.07,57.55L338.24,55.13L339.4,38.23L340.56,55.13L341.72,28.57L342.89,45.48L344.05,59.96L345.21,45.48L346.37,47.89L347.54,35.82L348.7,50.3L349.86,47.89L351.02,35.82L352.18,45.48L353.35,47.89L354.51,52.72L355.67,35.82L356.83,50.3L358,47.89L359.16,50.3L360.32,35.82L361.48,55.13L362.65,43.06L363.81,57.55L364.97,47.89L366.13,50.3L367.29,23.74L368.46,52.72L369.62,50.3L370.78,45.48L371.94,47.89L373.11,35.82L374.27,55.13L375.43,30.99L376.59,47.89L377.76,52.72L378.92,43.06L380.08,52.72L381.24,28.57L382.4,43.06L385.89,43.06L387.05,52.72L388.22,38.23L389.38,35.82L390.54,33.4L391.7,57.55L392.87,40.65L394.03,50.3L395.19,40.65L396.35,55.13L397.52,45.48L398.68,45.48L399.84,50.3L401,40.65L402.16,33.4L403.33,47.89L404.49,40.65L405.65,47.89L406.81,38.23L407.98,35.82L409.14,69.62L410.3,30.99L411.46,47.89L412.63,40.65L413.79,38.23L414.95,40.65L416.11,45.48L417.27,38.23L418.44,45.48L419.6,64.79L420.76,40.65L421.92,35.82L423.09,50.3L424.25,52.72L425.41,30.99L426.57,35.82L427.74,35.82L428.9,43.06L430.06,59.96L431.22,50.3L433.55,50.3L434.71,38.23L435.87,57.55L437.03,43.06L438.2,43.06L439.36,47.89L440.52,50.3L441.68,45.48L442.85,45.48L444.01,43.06L445.17,55.13L446.33,47.89L447.49,43.06L448.66,47.89L449.82,45.48L450.98,35.82L452.14,26.16L453.31,38.23L454.47,47.89L455.63,38.23L456.79,16.5L457.96,35.82L459.12,50.3L460.28,47.89L461.44,38.23L462.61,59.96L463.77,45.48L464.93,40.65L466.09,28.57L467.25,43.06L468.42,67.21L469.58,62.38L470.74,43.06L471.9,50.3L473.07,55.13L474.23,40.65L475.39,33.4L476.55,57.55L477.72,52.72L478.88,40.65L480.04,52.72L481.2,52.72L482.36,28.57L483.53,45.48L484.69,47.89L485.85,47.89L487.01,33.4L488.18,40.65L489.34,47.89L490.5,45.48L491.66,35.82L492.83,47.89L493.99,50.3L495.15,30.99L496.31,50.3L497.47,50.3L498.64,45.48L499.8,50.3L500.96,52.72L502.12,45.48L504.45,35.82L505.61,40.65L506.77,38.23L507.94,43.06L509.1,47.89L510.26,57.55L511.42,40.65L512.59,55.13L513.75,43.06L514.91,64.79L516.07,47.89L517.23,55.13L518.4,50.3L519.56,59.96L521.88,38.23L523.05,57.55L524.21,59.96L525.37,45.48L526.53,28.57L527.7,50.3L530.02,45.48L531.18,33.4L532.34,47.89L533.51,40.65L535.83,55.13L536.99,43.06L538.16,50.3L539.32,62.38L540.48,57.55L541.64,33.4L543.97,47.89L545.13,33.4L546.29,67.21L547.45,38.23L548.62,33.4L549.78,47.89L550.94,57.55L552.1,28.57L553.27,40.65L554.43,64.79L555.59,47.89L556.75,45.48L557.92,47.89L559.08,45.48L560.24,59.96L561.4,38.23L562.57,40.65L563.73,28.57L564.89,55.13L566.05,40.65L567.21,30.99L568.38,43.06L569.54,47.89L570.7,43.06L571.86,50.3L573.03,52.72L574.19,64.79L575.35,45.48L576.51,50.3L577.68,30.99L578.84,40.65L580,57.55" style="vector-effect: non-scaling-stroke; fill: none; stroke: rgb(31, 119, 180); stroke-opacity: 1; stroke-width: 2px; opacity: 1;"/></g><g class="points"/><g class="text"/></g></g></g><g class="overplot"/><path class="xlines-above crisp" d="M0,0" style="fill: none;"/><path class="ylines-above crisp" d="M0,0" style="fill: none;"/><g class="overlines-above"/><g class="xaxislayer-above"><g class="xtick"><text text-anchor="middle" x="0" y="403" transform="translate(175.07,0)" style="font-family: 'Open Sans', verdana, arial, sans-serif; font-size: 12px; fill: rgb(68, 68, 68); fill-opacity: 1; white-space: pre;">100</text></g><g class="xtick"><text text-anchor="middle" x="0" y="403" transform="translate(291.3,0)" style="font-family: 'Open Sans', verdana, arial, sans-serif; font-size: 12px; fill: rgb(68, 68, 68); fill-opacity: 1; white-space: pre;">200</text></g><g class="xtick"><text text-anchor="middle" x="0" y="403" transform="translate(407.54,0)" style="font-family: 'Open Sans', verdana, arial, sans-serif; font-size: 12px; fill: rgb(68, 68, 68); fill-opacity: 1; white-space: pre;">300</text></g><g class="xtick"><text text-anchor="middle" x="0" y="403" transform="translate(523.77,0)" style="font-family: 'Open Sans', verdana, arial, sans-serif; font-size: 12px; fill: rgb(68, 68, 68); fill-opacity: 1; white-space: pre;">400</text></g><g class="xtick"><text text-anchor="middle" x="0" y="403" transform="translate(640,0)" style="font-family: 'Open Sans', verdana, arial, sans-serif; font-size: 12px; fill: rgb(68, 68, 68); fill-opacity: 1; white-space: pre;">500</text></g></g><g class="yaxislayer-above"><g class="ytick"><text text-anchor="end" x="59" y="4.199999999999999" transform="translate(0,376.52)" style="font-family: 'Open Sans', verdana, arial, sans-serif; font-size: 12px; fill: rgb(68, 68, 68); fill-opacity: 1; white-space: pre;">55</text></g><g class="ytick"><text text-anchor="end" x="59" y="4.199999999999999" transform="translate(0,325.21)" style="font-family: 'Open Sans', verdana, arial, sans-serif; font-size: 12px; fill: rgb(68, 68, 68); fill-opacity: 1; white-space: pre;">60</text></g><g class="ytick"><text text-anchor="end" x="59" y="4.199999999999999" transform="translate(0,273.9)" style="font-family: 'Open Sans', verdana, arial, sans-serif; font-size: 12px; fill: rgb(68, 68, 68); fill-opacity: 1; white-space: pre;">65</text></g><g class="ytick"><text text-anchor="end" x="59" y="4.199999999999999" transform="translate(0,222.59)" style="font-family: 'Open Sans', verdana, arial, sans-serif; font-size: 12px; fill: rgb(68, 68, 68); fill-opacity: 1; white-space: pre;">70</text></g><g class="ytick"><text text-anchor="end" x="59" y="4.199999999999999" transform="translate(0,171.26999999999998)" style="font-family: 'Open Sans', verdana, arial, sans-serif; font-size: 12px; fill: rgb(68, 68, 68); fill-opacity: 1; white-space: pre;">75</text></g><g class="ytick"><text text-anchor="end" x="59" y="4.199999999999999" transform="translate(0,119.96000000000001)" style="font-family: 'Open Sans', verdana, arial, sans-serif; font-size: 12px; fill: rgb(68, 68, 68); fill-opacity: 1; white-space: pre;">80</text></g><g class="ytick"><text text-anchor="end" x="59" y="4.199999999999999" transform="translate(0,68.65)" style="font-family: 'Open Sans', verdana, arial, sans-serif; font-size: 12px; fill: rgb(68, 68, 68); fill-opacity: 1; white-space: pre;">85</text></g></g><g class="overaxes-above"/></g></g><g class="polarlayer"/><g class="ternarylayer"/><g class="geolayer"/><g class="funnelarealayer"/><g class="pielayer"/><g class="treemaplayer"/><g class="sunburstlayer"/><g class="glimages"/><defs id="topdefs-7f4d43"><g class="clips"/></defs><g class="layer-above"><g class="imagelayer"/><g class="shapelayer"/></g><g class="infolayer"><g class="g-gtitle"/><g class="g-xtitle"/><g class="g-ytitle"/></g></svg>