<svg class="main-svg" xmlns="http://www.w3.org/2000/svg" xmlns:xlink="http://www.w3.org/1999/xlink" width="700" height="450" style="" viewBox="0 0 700 450"><rect x="0" y="0" width="700" height="450" style="fill: rgb(255, 255, 255); fill-opacity: 1;"/><defs id="defs-277236"><g class="clips"><clipPath id="clip277236xyplot" class="plotclip"><rect width="580" height="330"/></clipPath><clipPath class="axesclip" id="clip277236x"><rect x="60" y="0" width="580" height="450"/></clipPath><clipPath class="axesclip" id="clip277236y"><rect x="0" y="60" width="700" height="330"/></clipPath><clipPath class="axesclip" id="clip277236xy"><rect x="60" y="60" width="580" height="330"/></clipPath></g><g class="gradients"/></defs><g class="bglayer"/><g class="layer-below"><g class="imagelayer"/><g class="shapelayer"/></g><g class="cartesianlayer"><g class="subplot xy"><g class="layer-subplot"><g class="shapelayer"/><g class="imagelayer"/></g><g class="gridlayer"><g class="x"><path class="xgrid crisp" transform="translate(202.81,0)" d="M0,60v330" style="stroke: rgb(238, 238, 238); stroke-opacity: 1; stroke-width: 1px;"/><path class="xgrid crisp" transform="translate(348.54,0)" d="M0,60v330" style="stroke: rgb(238, 238, 238); stroke-opacity: 1; stroke-width: 1px;"/><path class="xgrid crisp" transform="translate(494.27,0)" d="M0,60v330" style="stroke: rgb(238, 238, 238); stroke-opacity: 1; stroke-width: 1px;"/></g><g class="y"><path class="ygrid crisp" transform="translate(0,377.73)" d="M60,0h580" style="stroke: rgb(238, 238, 238); stroke-opacity: 1; stroke-width: 1px;"/><path class="ygrid crisp" transform="translate(0,341.81)" d="M60,0h580" style="stroke: rgb(238, 238, 238); stroke-opacity: 1; stroke-width: 1px;"/><path class="ygrid crisp" transform="translate(0,305.9)" d="M60,0h580" style="stroke: rgb(238, 238, 238); stroke-opacity: 1; stroke-width: 1px;"/><path class="ygrid crisp" transform="translate(0,269.98)" d="M60,0h580" style="stroke: rgb(238, 238, 238); stroke-opacity: 1; stroke-width: 1px;"/><path class="ygrid crisp" transform="translate(0,234.07)" d="M60,0h580" style="stroke: rgb(238, 238, 238); stroke-opacity: 1; stroke-width: 1px;"/><path class="ygrid crisp" transform="translate(0,198.15)" d="M60,0h580" style="stroke: rgb(238, 238, 238); stroke-opacity: 1; stroke-width: 1px;"/><path class="ygrid crisp" transform="translate(0,162.24)" d="M60,0h580" style="stroke: rgb(238, 238, 238); stroke-opacity: 1; stroke-width: 1px;"/><path class="ygrid crisp" transform="translate(0,126.32)" d="M60,0h580" style="stroke: rgb(238, 238, 238); stroke-opacity: 1; stroke-width: 1px;"/><path class="ygrid crisp" transform="translate(0,90.41)" d="M60,0h580" style="stroke: rgb(238, 238, 238); stroke-opacity: 1; stroke-width: 1px;"/></g></g><g class="zerolinelayer"/><path class="xlines-below"/><path class="ylines-below"/><g class="overlines-below"/><g class="xaxislayer-below"/><g class="yaxislayer-below"/><g class="overaxes-below"/><g class="plot" transform="translate(60, 60)" clip-path="url('#clip277236xyplot')"><g class="scatterlayer mlayer"><g class="trace scatter trace785a34" style="stroke-miterlimit: 2; opacity: 1;"><g class="fills"/><g class="errorbars"/><g class="lines"><path class="js-line" d="M0,66.49L2.91,56.25L5.83,26.99L8.74,51.83L11.66,68.5L14.57,16.5L17.49,89.35L20.4,99.94L23.32,86.72L26.23,73.02L29.15,34.11L32.06,43.85L34.97,95.12L37.89,61.2L40.8,91.22L43.72,57.01L46.63,51.42L49.55,93.66L52.46,124.77L55.38,52.51L58.29,101.85L61.21,75.61L64.12,99.8L67.04,76.36L69.95,131.81L72.86,79.9L75.78,86.28L78.69,94.46L81.61,117.5L84.52,95.55L87.44,123.16L90.35,125.83L93.27,120.16L96.18,146.87L99.1,150.4L102.01,147.43L104.92,169.88L107.84,147.4L110.75,169.22L113.67,156.45L116.58,157.34L119.5,182.63L122.41,180.76L125.33,145.08L128.24,145.58L131.16,167.21L134.07,160.5L136.98,178.82L139.9,166.9L142.81,167.8L145.73,145.52L148.64,188.17L151.56,141.5L154.47,180.78L157.39,128.68L160.3,205.09L163.22,212.76L166.13,178.71L169.05,183.74L171.96,206.26L174.87,216.23L177.79,164.62L180.7,192.42L183.62,236.79L186.53,169.25L189.45,225.8L192.36,204.55L195.28,249.79L198.19,213.36L201.11,215.14L204.02,227.88L206.93,224.77L209.85,222.84L212.76,222.95L215.68,216.91L218.59,238L221.51,225.25L224.42,247.31L227.34,238.2L230.25,267.63L233.17,216.24L236.08,275.7L238.99,214.23L244.82,253.06L247.74,249.5L250.65,211.57L253.57,230.74L256.48,244.36L259.4,220.67L262.31,244.04L265.23,230.11L268.14,283.97L271.06,254.42L273.97,264.32L276.88,279.29L279.8,287.92L282.71,261.43L285.63,263.21L288.54,255.9L291.46,272.11L294.37,270.28L297.29,261.13L300.2,268.46L303.12,270.98L306.03,276.98L308.94,300.64L311.86,291.2L314.77,295.75L317.69,284.35L320.6,275.15L323.52,301.45L326.43,261.16L329.35,298.7L335.18,265.66L338.09,283.32L341.01,264.47L343.92,268.16L349.75,294.32L352.66,260.44L355.58,286.58L358.49,295.04L361.41,279.06L364.32,276.79L367.24,295.51L370.15,284.02L373.07,301.95L375.98,261.31L378.89,296.34L381.81,279.36L384.72,292.28L387.64,295.74L390.55,294.86L393.47,261.7L396.38,293.37L399.3,297.6L402.21,280.75L405.13,307.32L408.04,295.79L410.95,289.75L413.87,302.3L416.78,295.14L419.7,292.89L422.61,308.66L425.53,307.29L428.44,289.55L431.36,297.82L434.27,312.98L437.19,287.73L440.1,287.43L443.02,309.18L445.93,308.47L448.84,272.31L451.76,299.86L454.67,309.88L457.59,313.5L460.5,302.57L463.42,304.73L466.33,296.81L469.25,306.91L472.16,303.59L475.08,303.19L480.9,305.43L483.82,307.7L486.73,303.27L489.65,309.95L492.56,301.43L495.48,304.92L498.39,303.36L501.31,298.9L504.22,301.3L507.14,301.68L510.05,299.06L512.96,307.11L515.88,309.13L518.79,304.36L524.62,305.56L527.54,304.45L533.37,309.99L536.28,302.9L539.2,301.29L542.11,298.03L545.03,305.83L547.94,304.91L550.85,303.71L553.77,306.38L556.68,302.3L559.6,308.26L562.51,302.66L565.43,302.05L568.34,299.22L571.26,301L574.17,308.72L577.09,294.41L580,302.43" style="vector-effect: non-scaling-stroke; fill: none; stroke: rgb(31, 119, 180); stroke-opacity: 1; stroke-width: 2px; opacity: 1;"/></g><g class="points"/><g class="text"/></g></g></g><g class="overplot"/><path class="xlines-above crisp" d="M0,0" style="fill: none;"/><path class="ylines-above crisp" d="M0,0" style="fill: none;"/><g class="overlines-above"/><g class="xaxislayer-above"><g class="xtick"><text text-anchor="middle" x="0" y="403" transform="translate(202.81,0)" style="font-family: 'Open Sans', verdana, arial, sans-serif; font-size: 12px; fill: rgb(68, 68, 68); fill-opacity: 1; white-space: pre;">50</text></g><g class="xtick"><text text-anchor="middle" x="0" y="403" transform="translate(348.54,0)" style="font-family: 'Open Sans', verdana, arial, sans-serif; font-size: 12px; fill: rgb(68, 68, 68); fill-opacity: 1; white-space: pre;">100</text></g><g class="xtick"><text text-anchor="middle" x="0" y="403" transform="translate(494.27,0)" style="font-family: 'Open Sans', verdana, arial, sans-serif; font-size: 12px; fill: rgb(68, 68, 68); fill-opacity: 1; white-space: pre;">150</text></g><g class="xtick"><text text-anchor="middle" x="0" y="403" transform="translate(640,0)" style="font-family: 'Open Sans', verdana, arial, sans-serif; font-size: 12px; fill: rgb(68, 68, 68); fill-opacity: 1; white-space: pre;">200</text></g></g><g class="yaxislayer-above"><g class="ytick"><text text-anchor="end" x="59" y="4.199999999999999" transform="translate(0,377.73)" style="font-family: 'Open Sans', verdana, arial, sans-serif; font-size: 12px; fill: rgb(68, 68, 68); fill-opacity: 1; white-space: pre;">0.4</text></g><g class="ytick"><text text-anchor="end" x="59" y="4.199999999999999" transform="translate(0,341.81)" style="font-family: 'Open Sans', verdana, arial, sans-serif; font-size: 12px; fill: rgb(68, 68, 68); fill-opacity: 1; white-space: pre;">0.5</text></g><g class="ytick"><text text-anchor="end" x="59" y="4.199999999999999" transform="translate(0,305.9)" style="font-family: 'Open Sans', verdana, arial, sans-serif; font-size: 12px; fill: rgb(68, 68, 68); fill-opacity: 1; white-space: pre;">0.6</text></g><g class="ytick"><text text-anchor="end" x="59" y="4.199999999999999" transform="translate(0,269.98)" style="font-family: 'Open Sans', verdana, arial, sans-serif; font-size: 12px; fill: rgb(68, 68, 68); fill-opacity: 1; white-space: pre;">0.7</text></g><g class="ytick"><text text-anchor="end" x="59" y="4.199999999999999" transform="translate(0,234.07)" style="font-family: 'Open Sans', verdana, arial, sans-serif; font-size: 12px; fill: rgb(68, 68, 68); fill-opacity: 1; white-space: pre;">0.8</text></g><g class="ytick"><text text-anchor="end" x="59" y="4.199999999999999" transform="translate(0,198.15)" style="font-family: 'Open Sans', verdana, arial, sans-serif; font-size: 12px; fill: rgb(68, 68, 68); fill-opacity: 1; white-space: pre;">0.9</text></g><g class="ytick"><text text-anchor="end" x="59" y="4.199999999999999" transform="translate(0,162.24)" style="font-family: 'Open Sans', verdana, arial, sans-serif; font-size: 12px; fill: rgb(68, 68, 68); fill-opacity: 1; white-space: pre;">1</text></g><g class="ytick"><text text-anchor="end" x="59" y="4.199999999999999" transform="translate(0,126.32)" style="font-family: 'Open Sans', verdana, arial, sans-serif; font-size: 12px; fill: rgb(68, 68, 68); fill-opacity: 1; white-space: pre;">1.1</text></g><g class="ytick"><text text-anchor="end" x="59" y="4.199999999999999" transform="translate(0,90.41)" style="font-family: 'Open Sans', verdana, arial, sans-serif; font-size: 12px; fill: rgb(68, 68, 68); fill-opacity: 1; white-space: pre;">1.2</text></g></g><g class="overaxes-above"/></g></g><g class="polarlayer"/><g class="ternarylayer"/><g class="geolayer"/><g class="funnelarealayer"/><g class="pielayer"/><g class="treemaplayer"/><g class="sunburstlayer"/><g class="glimages"/><defs id="topdefs-277236"><g class="clips"/></defs><g class="layer-above"><g class="imagelayer"/><g class="shapelayer"/></g><g class="infolayer"><g class="g-gtitle"/><g class="g-xtitle"/><g class="g-ytitle"/></g></svg>