<svg class="main-svg" xmlns="http://www.w3.org/2000/svg" xmlns:xlink="http://www.w3.org/1999/xlink" width="700" height="450" style="" viewBox="0 0 700 450"><rect x="0" y="0" width="700" height="450" style="fill: rgb(255, 255, 255); fill-opacity: 1;"/><defs id="defs-4c130c"><g class="clips"><clipPath id="clip4c130cxyplot" class="plotclip"><rect width="580" height="330"/></clipPath><clipPath class="axesclip" id="clip4c130cx"><rect x="60" y="0" width="580" height="450"/></clipPath><clipPath class="axesclip" id="clip4c130cy"><rect x="0" y="60" width="700" height="330"/></clipPath><clipPath class="axesclip" id="clip4c130cxy"><rect x="60" y="60" width="580" height="330"/></clipPath></g><g class="gradients"/></defs><g class="bglayer"/><g class="layer-below"><g class="imagelayer"/><g class="shapelayer"/></g><g class="cartesianlayer"><g class="subplot xy"><g class="layer-subplot"><g class="shapelayer"/><g class="imagelayer"/></g><g class="gridlayer"><g class="x"><path class="xgrid crisp" transform="translate(202.81,0)" d="M0,60v330" style="stroke: rgb(238, 238, 238); stroke-opacity: 1; stroke-width: 1px;"/><path class="xgrid crisp" transform="translate(348.54,0)" d="M0,60v330" style="stroke: rgb(238, 238, 238); stroke-opacity: 1; stroke-width: 1px;"/><path class="xgrid crisp" transform="translate(494.27,0)" d="M0,60v330" style="stroke: rgb(238, 238, 238); stroke-opacity: 1; stroke-width: 1px;"/></g><g class="y"><path class="ygrid crisp" transform="translate(0,355.9)" d="M60,0h580" style="stroke: rgb(238, 238, 238); stroke-opacity: 1; stroke-width: 1px;"/><path class="ygrid crisp" transform="translate(0,319.42)" d="M60,0h580" style="stroke: rgb(238, 238, 238); stroke-opacity: 1; stroke-width: 1px;"/><path class="ygrid crisp" transform="translate(0,282.94)" d="M60,0h580" style="stroke: rgb(238, 238, 238); stroke-opacity: 1; stroke-width: 1px;"/><path class="ygrid crisp" transform="translate(0,246.46)" d="M60,0h580" style="stroke: rgb(238, 238, 238); stroke-opacity: 1; stroke-width: 1px;"/><path class="ygrid crisp" transform="translate(0,209.98)" d="M60,0h580" style="stroke: rgb(238, 238, 238); stroke-opacity: 1; stroke-width: 1px;"/><path class="ygrid crisp" transform="translate(0,173.5)" d="M60,0h580" style="stroke: rgb(238, 238, 238); stroke-opacity: 1; stroke-width: 1px;"/><path class="ygrid crisp" transform="translate(0,137.01999999999998)" d="M60,0h580" style="stroke: rgb(238, 238, 238); stroke-opacity: 1; stroke-width: 1px;"/><path class="ygrid crisp" transform="translate(0,100.53)" d="M60,0h580" style="stroke: rgb(238, 238, 238); stroke-opacity: 1; stroke-width: 1px;"/><path class="ygrid crisp" transform="translate(0,64.05)" d="M60,0h580" style="stroke: rgb(238, 238, 238); stroke-opacity: 1; stroke-width: 1px;"/></g></g><g class="zerolinelayer"/><path class="xlines-below"/><path class="ylines-below"/><g class="overlines-below"/><g class="xaxislayer-below"/><g class="yaxislayer-below"/><g class="overaxes-below"/><g class="plot" transform="translate(60, 60)" clip-path="url('#clip4c130cxyplot')"><g class="scatterlayer mlayer"><g class="trace scatter trace69dbaf" style="stroke-miterlimit: 2; opacity: 1;"><g class="fills"/><g class="errorbars"/><g class="lines"><path class="js-line" d="M0,301.48L2.91,304.92L5.83,298.05L8.74,291.18L11.66,308.35L14.57,301.48L17.49,303.2L20.4,296.33L23.32,313.5L26.23,311.78L29.15,284.32L32.06,284.32L34.97,277.45L37.89,299.77L40.8,296.33L46.63,303.2L49.55,287.75L52.46,310.07L55.38,287.75L58.29,292.9L61.21,289.47L64.12,298.05L67.04,287.75L69.95,292.9L72.86,286.03L75.78,251.7L78.69,292.9L81.61,277.45L84.52,277.45L87.44,243.11L90.35,263.71L93.27,279.16L96.18,234.53L99.1,241.4L102.01,224.23L104.92,229.38L107.84,220.79L110.75,224.23L113.67,198.48L116.58,220.79L119.5,203.63L122.41,208.78L125.33,212.21L128.24,220.79L131.16,212.21L134.07,203.63L136.98,219.08L139.9,203.63L142.81,201.91L145.73,198.48L148.64,205.34L151.56,191.61L154.47,200.19L157.39,203.63L160.3,208.78L163.22,198.48L166.13,201.91L169.05,193.33L171.96,201.91L174.87,196.76L177.79,184.74L180.7,184.74L183.62,191.61L186.53,195.04L189.45,193.33L192.36,203.63L195.28,95.47L198.19,97.19L201.11,201.91L204.02,195.04L206.93,201.91L209.85,201.91L212.76,176.16L215.68,193.33L218.59,189.89L221.51,201.91L224.42,198.48L227.34,86.89L230.25,73.15L233.17,195.04L236.08,83.45L238.99,95.47L241.91,203.63L244.82,83.45L247.74,107.49L250.65,83.45L253.57,97.19L256.48,97.19L259.4,93.75L262.31,93.75L265.23,80.02L268.14,74.87L271.06,76.59L273.97,80.02L276.88,81.74L279.8,68L282.71,81.74L285.63,95.47L288.54,80.02L294.37,69.72L297.29,88.6L300.2,73.15L303.12,71.44L306.03,78.3L308.94,35.38L311.86,57.7L314.77,47.4L317.69,80.02L320.6,81.74L323.52,40.53L326.43,81.74L329.35,43.97L332.26,69.72L335.18,76.59L338.09,74.87L341.01,90.32L343.92,73.15L346.83,74.87L349.75,62.85L352.66,73.15L355.58,68L358.49,59.42L361.41,74.87L367.24,54.27L370.15,64.57L373.07,35.38L375.98,83.45L378.89,38.82L381.81,68L384.72,50.84L387.64,59.42L390.55,57.7L393.47,73.15L396.38,50.84L399.3,42.25L402.21,59.42L405.13,21.65L410.95,61.14L413.87,33.67L419.7,52.55L422.61,28.52L425.53,31.95L428.44,50.84L431.36,33.67L434.27,23.37L437.19,52.55L440.1,47.4L443.02,30.23L445.93,19.93L448.84,81.74L451.76,35.38L454.67,31.95L457.59,16.5L460.5,28.52L463.42,37.1L466.33,42.25L469.25,21.65L472.16,43.97L475.08,28.52L477.99,28.52L480.9,42.25L483.82,25.08L486.73,37.1L489.65,26.8L492.56,45.68L498.39,33.67L501.31,40.53L504.22,35.38L507.14,38.82L510.05,45.68L512.96,35.38L515.88,31.95L518.79,37.1L521.71,45.68L524.62,28.52L527.54,37.1L530.45,37.1L533.37,23.37L536.28,35.38L539.2,37.1L542.11,33.67L545.03,38.82L547.94,35.38L553.77,35.38L556.68,45.68L559.6,40.53L562.51,33.67L565.43,40.53L568.34,37.1L571.26,37.1L574.17,21.65L577.09,52.55L580,38.82" style="vector-effect: non-scaling-stroke; fill: none; stroke: rgb(31, 119, 180); stroke-opacity: 1; stroke-width: 2px; opacity: 1;"/></g><g class="points"/><g class="text"/></g></g></g><g class="overplot"/><path class="xlines-above crisp" d="M0,0" style="fill: none;"/><path class="ylines-above crisp" d="M0,0" style="fill: none;"/><g class="overlines-above"/><g class="xaxislayer-above"><g class="xtick"><text text-anchor="middle" x="0" y="403" transform="translate(202.81,0)" style="font-family: 'Open Sans', verdana, arial, sans-serif; font-size: 12px; fill: rgb(68, 68, 68); fill-opacity: 1; white-space: pre;">50</text></g><g class="xtick"><text text-anchor="middle" x="0" y="403" transform="translate(348.54,0)" style="font-family: 'Open Sans', verdana, arial, sans-serif; font-size: 12px; fill: rgb(68, 68, 68); fill-opacity: 1; white-space: pre;">100</text></g><g class="xtick"><text text-anchor="middle" x="0" y="403" transform="translate(494.27,0)" style="font-family: 'Open Sans', verdana, arial, sans-serif; font-size: 12px; fill: rgb(68, 68, 68); fill-opacity: 1; white-space: pre;">150</text></g><g class="xtick"><text text-anchor="middle" x="0" y="403" transform="translate(640,0)" style="font-family: 'Open Sans', verdana, arial, sans-serif; font-size: 12px; fill: rgb(68, 68, 68); fill-opacity: 1; white-space: pre;">200</text></g></g><g class="yaxislayer-above"><g class="ytick"><text text-anchor="end" x="59" y="4.199999999999999" transform="translate(0,355.9)" style="font-family: 'Open Sans', verdana, arial, sans-serif; font-size: 12px; fill: rgb(68, 68, 68); fill-opacity: 1; white-space: pre;">0.45</text></g><g class="ytick"><text text-anchor="end" x="59" y="4.199999999999999" transform="translate(0,319.42)" style="font-family: 'Open Sans', verdana, arial, sans-serif; font-size: 12px; fill: rgb(68, 68, 68); fill-opacity: 1; white-space: pre;">0.5</text></g><g class="ytick"><text text-anchor="end" x="59" y="4.199999999999999" transform="translate(0,282.94)" style="font-family: 'Open Sans', verdana, arial, sans-serif; font-size: 12px; fill: rgb(68, 68, 68); fill-opacity: 1; white-space: pre;">0.55</text></g><g class="ytick"><text text-anchor="end" x="59" y="4.199999999999999" transform="translate(0,246.46)" style="font-family: 'Open Sans', verdana, arial, sans-serif; font-size: 12px; fill: rgb(68, 68, 68); fill-opacity: 1; white-space: pre;">0.6</text></g><g class="ytick"><text text-anchor="end" x="59" y="4.199999999999999" transform="translate(0,209.98)" style="font-family: 'Open Sans', verdana, arial, sans-serif; font-size: 12px; fill: rgb(68, 68, 68); fill-opacity: 1; white-space: pre;">0.65</text></g><g class="ytick"><text text-anchor="end" x="59" y="4.199999999999999" transform="translate(0,173.5)" style="font-family: 'Open Sans', verdana, arial, sans-serif; font-size: 12px; fill: rgb(68, 68, 68); fill-opacity: 1; white-space: pre;">0.7</text></g><g class="ytick"><text text-anchor="end" x="59" y="4.199999999999999" transform="translate(0,137.01999999999998)" style="font-family: 'Open Sans', verdana, arial, sans-serif; font-size: 12px; fill: rgb(68, 68, 68); fill-opacity: 1; white-space: pre;">0.75</text></g><g class="ytick"><text text-anchor="end" x="59" y="4.199999999999999" transform="translate(0,100.53)" style="font-family: 'Open Sans', verdana, arial, sans-serif; font-size: 12px; fill: rgb(68, 68, 68); fill-opacity: 1; white-space: pre;">0.8</text></g><g class="ytick"><text text-anchor="end" x="59" y="4.199999999999999" transform="translate(0,64.05)" style="font-family: 'Open Sans', verdana, arial, sans-serif; font-size: 12px; fill: rgb(68, 68, 68); fill-opacity: 1; white-space: pre;">0.85</text></g></g><g class="overaxes-above"/></g></g><g class="polarlayer"/><g class="ternarylayer"/><g class="geolayer"/><g class="funnelarealayer"/><g class="pielayer"/><g class="treemaplayer"/><g class="sunburstlayer"/><g class="glimages"/><defs id="topdefs-4c130c"><g class="clips"/></defs><g class="layer-above"><g class="imagelayer"/><g class="shapelayer"/></g><g class="infolayer"><g class="g-gtitle"/><g class="g-xtitle"/><g class="g-ytitle"/></g></svg>